<?xml version="1.0" encoding="UTF-8" standalone="no"?>
<!DOCTYPE svg PUBLIC "-//W3C//DTD SVG 1.1//EN"
 "http://www.w3.org/Graphics/SVG/1.1/DTD/svg11.dtd">
<!-- Generated by graphviz version 2.47.0 (20210316.0004)
 -->
<!-- Title: dependencies Pages: 1 -->
<svg width="504pt" height="284pt"
 viewBox="0.00 0.00 504.00 284.00" xmlns="http://www.w3.org/2000/svg" xmlns:xlink="http://www.w3.org/1999/xlink">
<g id="graph0" class="graph" transform="scale(1 1) rotate(0) translate(4 280)">
<title>dependencies</title>
<polygon fill="white" stroke="transparent" points="-4,4 -4,-280 500,-280 500,4 -4,4"/>
<text text-anchor="start" x="227.01" y="-42.4" font-family="Times-12" font-weight="bold" font-size="14.00">Legend</text>
<polygon fill="#ffffb3" stroke="transparent" points="14,-10 14,-30 34,-30 34,-10 14,-10"/>
<text text-anchor="start" x="37.63" y="-15.4" font-family="Times-12" font-size="14.00"> &#160;Declarations</text>
<polygon fill="#8dd3c7" stroke="transparent" points="127,-10 127,-30 147,-30 147,-10 127,-10"/>
<text text-anchor="start" x="150.73" y="-15.4" font-family="Times-12" font-size="14.00"> &#160;Module</text>
<polygon fill="#80b1d3" stroke="transparent" points="213,-10 213,-30 233,-30 233,-10 213,-10"/>
<text text-anchor="start" x="236.78" y="-15.4" font-family="Times-12" font-size="14.00"> &#160;Bootstrap</text>
<polygon fill="#fdb462" stroke="transparent" points="310,-10 310,-30 330,-30 330,-10 310,-10"/>
<text text-anchor="start" x="333.67" y="-15.4" font-family="Times-12" font-size="14.00"> &#160;Providers</text>
<polygon fill="#fb8072" stroke="transparent" points="406,-10 406,-30 426,-30 426,-10 406,-10"/>
<text text-anchor="start" x="429.73" y="-15.4" font-family="Times-12" font-size="14.00"> &#160;Exports</text>
<g id="clust1" class="cluster">
<title>cluster_AppModule</title>
<polygon fill="none" stroke="black" stroke-dasharray="1,5" points="29.5,-70 29.5,-268 466.5,-268 466.5,-70 29.5,-70"/>
</g>
<g id="clust8" class="cluster">
<title>cluster_AppModule_bootstrap</title>
<polygon fill="none" stroke="black" points="191.5,-208 191.5,-260 315.5,-260 315.5,-208 191.5,-208"/>
</g>
<g id="clust2" class="cluster">
<title>cluster_AppModule_declarations</title>
<polygon fill="none" stroke="black" points="37.5,-78 37.5,-130 458.5,-130 458.5,-78 37.5,-78"/>
</g>
<!-- AppComponent -->
<g id="node1" class="node">
<title>AppComponent</title>
<polygon fill="#ffffb3" stroke="black" points="450.44,-122 344.56,-122 344.56,-86 450.44,-86 450.44,-122"/>
<text text-anchor="middle" x="397.5" y="-99.8" font-family="Times,serif" font-size="14.00">AppComponent</text>
</g>
<!-- AppModule -->
<g id="node4" class="node">
<title>AppModule</title>
<polygon fill="#8dd3c7" stroke="black" points="295.16,-187 292.16,-191 271.16,-191 268.16,-187 211.84,-187 211.84,-151 295.16,-151 295.16,-187"/>
<text text-anchor="middle" x="253.5" y="-164.8" font-family="Times,serif" font-size="14.00">AppModule</text>
</g>
<!-- AppComponent&#45;&gt;AppModule -->
<g id="edge1" class="edge">
<title>AppComponent&#45;&gt;AppModule</title>
<path fill="none" stroke="black" d="M397.5,-122.11C397.5,-141.34 397.5,-169 397.5,-169 397.5,-169 305.54,-169 305.54,-169"/>
<polygon fill="black" stroke="black" points="305.54,-165.5 295.54,-169 305.54,-172.5 305.54,-165.5"/>
</g>
<!-- CanvasBoxComponent -->
<g id="node2" class="node">
<title>CanvasBoxComponent</title>
<polygon fill="#ffffb3" stroke="black" points="326.38,-122 180.62,-122 180.62,-86 326.38,-86 326.38,-122"/>
<text text-anchor="middle" x="253.5" y="-99.8" font-family="Times,serif" font-size="14.00">CanvasBoxComponent</text>
</g>
<!-- CanvasBoxComponent&#45;&gt;AppModule -->
<g id="edge2" class="edge">
<title>CanvasBoxComponent&#45;&gt;AppModule</title>
<path fill="none" stroke="black" d="M253.5,-122.11C253.5,-122.11 253.5,-140.99 253.5,-140.99"/>
<polygon fill="black" stroke="black" points="250,-140.99 253.5,-150.99 257,-140.99 250,-140.99"/>
</g>
<!-- SalvarComponent -->
<g id="node3" class="node">
<title>SalvarComponent</title>
<polygon fill="#ffffb3" stroke="black" points="163.1,-122 45.9,-122 45.9,-86 163.1,-86 163.1,-122"/>
<text text-anchor="middle" x="104.5" y="-99.8" font-family="Times,serif" font-size="14.00">SalvarComponent</text>
</g>
<!-- SalvarComponent&#45;&gt;AppModule -->
<g id="edge3" class="edge">
<title>SalvarComponent&#45;&gt;AppModule</title>
<path fill="none" stroke="black" d="M104.5,-122.11C104.5,-141.34 104.5,-169 104.5,-169 104.5,-169 201.6,-169 201.6,-169"/>
<polygon fill="black" stroke="black" points="201.6,-172.5 211.6,-169 201.6,-165.5 201.6,-172.5"/>
</g>
<!-- AppComponent  -->
<g id="node5" class="node">
<title>AppComponent </title>
<polygon fill="#80b1d3" stroke="black" points="307.94,-252 199.06,-252 199.06,-216 307.94,-216 307.94,-252"/>
<text text-anchor="middle" x="253.5" y="-229.8" font-family="Times,serif" font-size="14.00">AppComponent </text>
</g>
<!-- AppModule&#45;&gt;AppComponent  -->
<g id="edge4" class="edge">
<title>AppModule&#45;&gt;AppComponent </title>
<path fill="none" stroke="black" stroke-dasharray="1,5" d="M253.5,-187.11C253.5,-187.11 253.5,-205.99 253.5,-205.99"/>
<polygon fill="black" stroke="black" points="250,-205.99 253.5,-215.99 257,-205.99 250,-205.99"/>
</g>
</g>
</svg>
